<svg id="Ebene_1" data-name="Ebene 1" xmlns="http://www.w3.org/2000/svg" xmlns:xlink="http://www.w3.org/1999/xlink" viewBox="0 0 107.24 122.08"><defs><style>.cls-1{fill:none;}.cls-2{clip-path:url(#clip-path);}</style><clipPath id="clip-path"><rect class="cls-1" width="107.24" height="162.16"/></clipPath></defs><g class="cls-2"><path d="M61.2,122.08c-1.92-.68-9.52-4.19-9.52-4.19l-4-.45-1.27-.13L36.4,116.13l-5.11-.81,2.27-5.14,1.12-4.09c.36-1.32,1.45-4,1.75-5C37,99.22,39.51,94,39.51,94s.2-2.58.27-3.29c.23-2.48,1.53-7.2,1.81-9.47a15.17,15.17,0,0,1,.9-2.55L37.39,74l-.71,1.84-.57.28-2.55,6.66L31.1,87.5l-5.19,4.68L21.8,93.59l-7.66-.85a50.52,50.52,0,0,1-7.79-7.08,30.61,30.61,0,0,1-3-4.68A79.85,79.85,0,0,1,1,72.48L.84,69.07.11,67.66,0,65.39,5.07,59.3l5.81-4.4,4.26-2a40.89,40.89,0,0,1,6.66,0c2,.42,7.37,3.32,7.37,3.32l10.77,1.13.57-6.24L41.35,45V42.29l.75-4.82L41,36.82,41,36.48,35.4,32l-.56,2.64-4.08,7.06-.22,1.45-1.09,1-5.24,1.13-2-.56-7.37-5a14.29,14.29,0,0,1-1.27-2.13c-.73-2.23-.85-9.35-.85-9.35l.42-4.4,5.53-10.34,4.68-4.68,2.83-1.28a27.36,27.36,0,0,1,4.72,0c2,.4,3.5,3,3.5,3l1.56,5,.28,4h6.1l3.12.57L43.76,3.17S44.49.7,45.28.25,49,.14,49,.14l8.22,3.45L64.74,6,58.51,23.48,56.24,29l5.52-.85,3.14.15,2.11-3,7.51-6.38,7.94,2.69L86.15,25l1,0a14.64,14.64,0,0,1,1.28,2.41c.77,3.05.11,12.61.11,12.61L88,44.55v2.56l-2.55,3.26-5.38,3.54a28.36,28.36,0,0,1-4.25,2.27,11.37,11.37,0,0,1-4.11.14c-1.74-.42-6.24-3.46-6.24-3.46L63,49.23,59.92,38l-.14-1.14.43-.71a3.65,3.65,0,0,0-2.09-.14,5.27,5.27,0,0,0-.89.43L52.55,37,51,37.61l2,24.8,1.56,1,2.19,1.41,6.17,2,6.52,1.7h1.42a52.79,52.79,0,0,1,3.82-4.68,26.65,26.65,0,0,1,5.1-3.4,40,40,0,0,1,4.68-1.28s10.4-.82,13.47.57c1.88.85,4.25,6.09,4.25,6.09l3.26,7,1.7,5.67.12,3.12-.4,1L95.92,92.74l-.57.15L92.24,96l-1,.43L77.5,96.29l-1.56-.85h-.85L73,93l-2.41-5.25L67.73,81v-.85H65.45l-1.86.74-6.93,1.95-1,2.13.43.28s2.11,14,2.61,18.85c.22,2.08,1.07,8.65,1.07,8.65s1.6,9,1.42,9.35"/></g></svg>