<svg id="Ebene_1" data-name="Ebene 1" xmlns="http://www.w3.org/2000/svg" xmlns:xlink="http://www.w3.org/1999/xlink" viewBox="0 0 85.55 21.75"><defs><style>.cls-1{fill:none;}.cls-2{clip-path:url(#clip-path);}</style><clipPath id="clip-path"><rect class="cls-1" x="-10.84" y="-140.42" width="107.24" height="162.16"/></clipPath></defs><g class="cls-2"><path d="M85.55,0H68.44V4.89h9.61v.2L67.78,16.82v4.93H85.55V16.86H75.15v-.2l10.4-11.8ZM65.34,0H59.57V8.71c0,2.47,0,2.47.23,7.82h-.23c-.85-2.44-1.76-4.92-2.68-7.37L53.44,0H43.62V21.75h5.71V13c0-2.38,0-2.38-.26-8h.26c.88,2.54,1.79,5.05,2.71,7.57l3.42,9.16h9.88ZM33.88,13.79H28.46l2.68-9.45ZM35,18l1.14,3.75h5.93L35.47,0H26.64L20.12,21.75h6.06l1-3.75ZM5.84,16.76V5.05h4.72c1.47,0,2.25.3,2.71,1s.59,2.15.59,4.46l-.1,2.84a3.72,3.72,0,0,1-.52,2.09c-.52.94-1.21,1.27-2.68,1.27ZM0,21.75H11.05a13.48,13.48,0,0,0,4.7-.65,6.08,6.08,0,0,0,3.81-5,31.91,31.91,0,0,0,.23-5.42l0-2.57c0-3.29-1-5.58-3-6.91A10.3,10.3,0,0,0,11.38,0H0Z"/></g></svg>