<svg id="Ebene_1" data-name="Ebene 1" xmlns="http://www.w3.org/2000/svg" xmlns:xlink="http://www.w3.org/1999/xlink" viewBox="0 0 138.2 22.07"><defs><style>.cls-1{fill:none;}.cls-2{clip-path:url(#clip-path);}</style><clipPath id="clip-path"><rect class="cls-1" x="-1.83" y="-130.42" width="141.86" height="152.49"/></clipPath></defs><g class="cls-2"><path d="M124.21,16.92V5.22h4.73c1.47,0,2.25.29,2.71,1s.58,2.15.58,4.47l-.1,2.83a3.64,3.64,0,0,1-.52,2.09c-.52.94-1.2,1.27-2.67,1.27Zm-5.83,5h11.05a13.45,13.45,0,0,0,4.69-.65,6.09,6.09,0,0,0,3.82-5,34.24,34.24,0,0,0,.23-5.41l0-2.58c0-3.29-1-5.57-3-6.91A10.46,10.46,0,0,0,129.75.16H118.38ZM105.63,5h9.91V.16H99.79V21.91h15.95V17.12H105.63V12.88h9.26v-4h-9.26ZM92.07.16,89.62,8.54c-.81,2.87-1.6,5.67-2.31,8.38h-.17c-.35-1.4-.71-2.8-1.1-4.21s-.79-2.77-1.18-4.17L82.45.16h-5.9l6.16,21.75h9L98.1.16ZM65.72,5c3.59,0,4,.55,4,5.8a17.08,17.08,0,0,1-.39,4.6c-.49,1.33-1.2,1.66-3.68,1.66-2.16,0-2.94-.16-3.46-.72s-.75-1.66-.75-3.35c0-4.86,0-5.32.2-6C62,5.41,62.92,5,65.72,5m.17-5a19.35,19.35,0,0,0-5.41.52A6.36,6.36,0,0,0,56,4.66c-.43,1.57-.56,3.29-.56,7.53,0,4.5.39,6.07,1.89,7.6,1.67,1.73,3.56,2.28,7.83,2.28,5.15,0,7.63-.78,9.13-2.93,1.1-1.57,1.4-3.26,1.4-8a30.77,30.77,0,0,0-.33-5.8A6.09,6.09,0,0,0,71.82.85C70.48.23,69,0,65.89,0M45.45.16H39.61V21.91h15v-5H45.45ZM27,5h9.91V.16H21.19V21.91H37.13V17.12H27V12.88h9.26v-4H27ZM5.84,11.22V5.15h4.33c2.15,0,2.58.43,2.58,2.61,0,3-.33,3.46-2.29,3.46ZM0,21.91H5.84V16.14h4.33c1.83,0,2.45.75,2.45,2.87v2.9h5.93v-4c0-2.77-1.24-4.11-3.94-4.24v-.23c3.48-.84,4.1-1.79,4.1-6.52,0-3-.49-4.46-1.92-5.51C15.52.46,14.12.16,11,.16H0Z"/></g></svg>